<svg xmlns="http://www.w3.org/2000/svg">
    <symbol id="cog" viewBox="0 0 18 18">
        <path fill-rule="evenodd" stroke="#000" d="M7.16357111,1.1911306 C8.34510126,0.94581242 9.60540009,0.926941791 10.8263146,1.1911306 C11.0232363,1.22887185 11.1413893,1.37983689 11.1413893,1.56854318 L11.1413893,1.56854318 L11.1413893,3.15367601 C11.8699995,3.38012355 12.5986098,3.79527739 13.1893749,4.28591374 L13.1893749,4.28591374 L14.6269032,3.49334733 C14.7844406,3.39899418 15.0010544,3.41786481 15.1388996,3.56882984 C15.9659707,4.38026689 16.5961201,5.47476337 16.9702714,6.62587173 C17.0293479,6.79570739 16.9505792,6.98441368 16.7930418,7.07876683 L16.7930418,7.07876683 L15.3555135,7.87133324 C15.5130508,8.60728777 15.4933587,9.38098356 15.3555135,10.1358087 L15.3555135,10.1358087 L16.7930418,10.9283751 C16.9505792,11.0227283 17.0293479,11.2114346 16.9899635,11.3812702 C16.5961201,12.5323786 15.9659707,13.5702632 15.1388996,14.4383121 C15.0010544,14.5892772 14.8041328,14.5892772 14.6465954,14.5137946 L14.6465954,14.5137946 L13.2090671,13.7023576 C12.5986098,14.2118646 11.9093839,14.6081478 11.1610815,14.8345953 L11.1610815,14.8345953 L11.1610815,16.4385988 C11.1610815,16.6084344 11.0232363,16.7782701 10.8460067,16.8160114 C9.6644766,17.0613295 8.40417777,17.0613295 7.16357111,16.8160114 C6.96664942,16.7782701 6.84849641,16.6084344 6.84849641,16.4385988 L6.84849641,16.4385988 L6.84849641,14.853466 C6.08050181,14.6081478 5.39127589,14.2118646 4.80051081,13.7212282 L4.80051081,13.7212282 L3.36298246,14.5137946 C3.20544511,14.5892772 2.98883125,14.5704065 2.87067823,14.4383121 C2.02391496,13.5513926 1.39376555,12.5323786 1.01961433,11.3812702 C0.960537824,11.2114346 1.0393065,11.0227283 1.19684385,10.9283751 L1.19684385,10.9283751 L2.6343722,10.1358087 C2.49652702,9.36211293 2.49652702,8.60728777 2.6343722,7.87133324 L2.6343722,7.87133324 L1.19684385,7.07876683 C1.0393065,6.98441368 0.960537824,6.79570739 1.01961433,6.62587173 C1.39376555,5.493634 2.02391496,4.41800815 2.87067823,3.56882984 C2.96913908,3.43673544 3.20544511,3.39899418 3.38267463,3.49334733 L3.38267463,3.49334733 L4.80051081,4.28591374 C5.41096806,3.79527739 6.08050181,3.39899418 6.84849641,3.15367601 L6.84849641,3.15367601 L6.84849641,1.56854318 C6.84849641,1.39870751 6.96664942,1.22887185 7.16357111,1.1911306 Z M8.97525068,6.41829482 C7.48528187,6.41829482 6.2774235,7.57576238 6.2774235,9.00357098 C6.2774235,10.4313796 7.48528187,11.5888471 8.97525068,11.5888471 C10.4652195,11.5888471 11.6730779,10.4313796 11.6730779,9.00357098 C11.6730779,7.57576238 10.4652195,6.41829482 8.97525068,6.41829482 Z"/>
    </symbol>
</svg>
