<svg xmlns="http://www.w3.org/2000/svg">
    <symbol id="sign-up" viewBox="0 0 18 18">
        <g fill-rule="evenodd" transform="translate(1 2.5)">
          <ellipse cx="5.616" cy="3.243" rx="3.203" ry="3.243"/>
          <path d="M12.8117002 8.92824601L13.6014625 8.92824601C13.820841 8.92824601 14.0109689 8.7357631 14.0109689 8.51366743L14.0109689 6.89977221 15.6051188 6.89977221C15.8244973 6.89977221 16 6.72209567 16 6.5L16 5.6856492C16 5.46355353 15.8244973 5.27107062 15.6051188 5.27107062L14.0109689 5.27107062 14.0109689 3.6571754C14.0109689 3.43507973 13.820841 3.25740319 13.6014625 3.25740319L12.8117002 3.25740319C12.5776965 3.25740319 12.4021938 3.43507973 12.4021938 3.6571754L12.4021938 5.28587699 10.8080439 5.28587699C10.5740402 5.28587699 10.3985375 5.46355353 10.3985375 5.6856492L10.3985375 6.5C10.3985375 6.72209567 10.5740402 6.89977221 10.8080439 6.89977221L12.4021938 6.89977221 12.4021938 8.51366743C12.4021938 8.75056948 12.5776965 8.92824601 12.8117002 8.92824601zM10.0036563 12.9851936C10.6617916 12.9851936 11.2030271 12.4373576 11.2030271 11.7710706L11.2030271 10.7050114C11.2030271 8.82460137 9.68190128 7.3143508 7.83912249 7.29954442L7.41499086 7.29954442C6.8738574 7.56605923 6.24497258 7.71412301 5.60146252 7.71412301 4.95795247 7.71412301 4.32906764 7.5808656 3.77330896 7.29954442L3.36380256 7.29954442C1.49177331 7.29954442 0 8.82460137 0 10.7050114L0 11.7562642C0 12.4373576.541133455 12.9851936 1.19926874 12.9851936L10.0036563 12.9851936z"/>
        </g>
    </symbol>
    <symbol id="sign-in" viewBox="0 0 18 18">
		<path d="M14.0211566,3 L11.3939821,3 C11.2078044,3 11.0423131,3.1654913 11.0423131,3.35166902 L11.0423131,4.6135402 C11.0423131,4.79971791 11.2078044,4.98589563 11.3939821,4.98589563 L14.0211566,4.98589563 C14.5590033,4.98589563 15.0141044,5.44099671 15.0141044,5.97884344 L15.0141044,11.9365303 C15.0141044,12.4743771 14.5590033,12.9294781 14.0211566,12.9294781 L11.4146685,12.9294781 C11.2078044,12.9294781 11.0423131,13.0949694 11.0423131,13.2811472 L11.0423131,14.5430183 C11.0423131,14.7498825 11.2078044,14.9153738 11.4146685,14.9153738 L14.0211566,14.9153738 C15.6553832,14.9153738 17,13.5914433 17,11.9365303 L17,5.97884344 C17,4.32393042 15.6553832,3 14.0211566,3 Z M7.24729666,14.9147575 L12.4602727,9.68109504 C12.7498825,9.39148527 12.7498825,8.91569777 12.4602727,8.64677441 L7.24729666,3.43379838 C6.77150917,2.95801089 5.96473907,3.28899349 5.96473907,3.9509587 L5.98542548,6.92980214 L1.74471086,6.92980214 C1.3309826,6.92980214 1,7.26078475 1,7.674513 L1,10.6533564 C1,11.0670847 1.3309826,11.3980673 1.74471086,11.3980673 L5.98542548,11.3980673 L5.96473907,14.3769107 C5.96473907,15.038876 6.77150917,15.3698586 7.24729666,14.9147575 Z"/>
	</symbol>
	<symbol id="sign-out" viewBox="0 0 18 18">
		<path d="M4.04560476,15.182419 C2.37475215,15.182419 1,13.8288169 1,12.1368143 L1,6.04560476 C1,4.35360212 2.37475215,3 4.04560476,3 L6.71050892,3 C6.92200925,3 7.09120952,3.16920026 7.09120952,3.38070059 L7.09120952,4.67085261 C7.09120952,4.86120291 6.92200925,5.03040317 6.71050892,5.03040317 L4.04560476,5.03040317 C3.4957039,5.03040317 3.03040317,5.4957039 3.03040317,6.04560476 L3.03040317,12.1368143 C3.03040317,12.6867151 3.4957039,13.1520159 4.04560476,13.1520159 L6.73165896,13.1520159 C6.92200925,13.1520159 7.09120952,13.3423662 7.09120952,13.5327165 L7.09120952,14.8228685 C7.09120952,15.0132188 6.92200925,15.182419 6.73165896,15.182419 L4.04560476,15.182419 Z M11.4481163,14.9709187 C10.9616656,15.4362194 10.1368143,15.0978189 10.1368143,14.4210178 L10.1579643,11.3754131 L5.82220753,11.3754131 C5.39920687,11.3754131 5.06080635,11.0370126 5.06080635,10.6140119 L5.06080635,7.56840714 C5.06080635,7.14540648 5.39920687,6.80700595 5.82220753,6.80700595 L10.1579643,6.80700595 L10.1368143,3.76140119 C10.1368143,3.08460013 10.9616656,2.7461996 11.4481163,3.23265036 L16.7779247,8.56245869 C17.0740251,8.83740912 17.0740251,9.32385988 16.7779247,9.61996034 L11.4481163,14.9709187 Z"/>
	</symbol>
	<symbol id="user" viewBox="0 0 18 18">
		<path d="M6.20833333,10 L6.70833333,10 C7.41666667,10.3333333 8.1875,10.5 9,10.5 C9.8125,10.5 10.5833333,10.3333333 11.2916667,10 L11.7916667,10 C14.125,10 16,11.875 16,14.2083333 L16,15.5 C16,16.3333333 15.3333333,17 14.5,17 L3.5,17 C2.66666667,17 2,16.3333333 2,15.5 L2,14.2083333 C2,11.875 3.875,10 6.20833333,10 Z M9.02083333,9 C6.81169433,9 5.02083333,7.209139 5.02083333,5 C5.02083333,2.790861 6.81169433,1 9.02083333,1 C11.2299723,1 13.0208333,2.790861 13.0208333,5 C13.0208333,7.209139 11.2299723,9 9.02083333,9 Z"></path>
	</symbol>
</svg>
